<!--Scalable Vector Graphic-->
<svg xmlns="http://www.w3.org/2000/svg" 
     xmlns:xlink="http://www.w3.org/1999/xlink"  
     width="960px" 
     height="560px" 
     viewBox="0 0 776 562"
	 fill="white">
	 <path d="M259.79 81.7c.23 3.5.66 7 1.11 10.6a3 3 0 0 0 3.25 2.57 18.5 18.5 0 0 0 8.8-3.36 2.63 2.63 0 0 0 1.1-2.49c-.77-6.11-3.5-26.67-4-30.71a.19.19 0 0 1 .34-.14c6.91 8.91 12.95 18.1 20.32 26.08a2.34 2.34 0 0 0 1.4.73c3.3.41 6-1.78 8.91-2a2.44 2.44 0 0 0 2.16-1.71c1.12-3.76.32-29.89 1.27-34.79a.25.25 0 0 1 .47 0c1.74 4.35 3.39 8.56 5.12 12.73 1.54 3.71 2.71 7.19 4.15 11.31a46.3 46.3 0 0 0 3 7 2.48 2.48 0 0 0 2.2 1.32 22.86 22.86 0 0 0 9.61-2.52 2.4 2.4 0 0 0 1.22-3c-2-5.38-3.95-10.78-6.11-16.11-2.54-6.29-12.19-25.93-14.22-29.58-1.89-3.39-3.33-7.18-6.58-9.65-4.06 1.68-8.63 1.71-12.17 4.24-.4 6.86-.92 13.53-1.14 20.21-.19 5.78 0 11.58 0 18.13-3.14-3.49-17.6-24-23.15-30.1a3 3 0 0 0-3.14-.88c-3.2 1-6.75 1.23-9.37 3.63a3.54 3.54 0 0 0-1 3.51c2.15 8.28 6.29 42.56 6.45 44.98zm291.28 20.87c-.27-2.38-1.32-4.54-1.16-7.07a38.36 38.36 0 0 1 5-17.46 36.33 36.33 0 0 1 14.84-14 28.92 28.92 0 0 1 18.16-2.9c2.69.47 5.73 1.16 8.15 3.22 1.71 1.47 4.23 2 6.07 3.31 3 2.22 5.78 4.76 8.49 7.06a1 1 0 0 1 .35.75v2.6a1 1 0 0 1-.34.73c-2.55 2.25-4.44 5.6-8.57 6.16a1 1 0 0 1-.85-.31 30.49 30.49 0 0 0-9.89-7 17.75 17.75 0 0 0-8.77-1.66 3.28 3.28 0 0 0-1.36.33c-3.93 2.27-8.5 3.55-11.43 7.39-2.39 3.15-4.6 6.33-4.8 10.52-.08 1.7-1.34 3.69-.78 5 .69 1.61.42 3.18.9 4.64a16.33 16.33 0 0 0 2.73 5.33c3.26 3.92 7.77 5.74 12.64 6.78 2.47.53 4-1.59 6.1-2.19.84-.24 1.49-1.15 2.28-2.08a.92.92 0 0 0-.24-1.39c-2.42-1.47-5-2.13-7.39-3.46a4.07 4.07 0 0 1-2-3.55v-.12a4.81 4.81 0 0 1 1.08-3l3.4-4.2a3 3 0 0 1 3.66-.79l15.82 7.91a1.82 1.82 0 0 1 .81.79l.73 1.45a1.87 1.87 0 0 1 .16 1.28 27.61 27.61 0 0 1-1.43 4.67A33.77 33.77 0 0 1 589 126.85a14.41 14.41 0 0 1-12.21 1.29 48.45 48.45 0 0 1-20.11-12.95 27.94 27.94 0 0 1-5.61-12.62zM184.45 68a10 10 0 0 1-1.54-4 1.9 1.9 0 0 1 .88-1.69c9.52-6.16 19-11.23 29.39-14.27a1.83 1.83 0 0 1 1.81.49c2.66 2.74 4.24 5.69 4 9.57a1.33 1.33 0 0 1-.7 1.07l-15.53 8.41a1.21 1.21 0 0 0-.55 1.5l1.74 4.4a2.23 2.23 0 0 0 2.42 1.41 7.06 7.06 0 0 0 2.16-.73c4.34-2.21 8.9-4 13.35-5.86a2.06 2.06 0 0 1 2 .2c2.41 1.69 3.58 4.22 4.78 6.89a2 2 0 0 1 .05 1.54c-.74 2-2.46 3.24-4.89 4.2A111.41 111.41 0 0 0 213 86.57a1.38 1.38 0 0 0-.6 1.81c1.7 3.57 3.35 7.06 5.11 10.74a1.43 1.43 0 0 0 1.94.67c5.12-2.57 10-4.84 14.62-7.6a7 7 0 0 1 4.07-1.1 1.15 1.15 0 0 1 1.11.82c.9 3.22 3.52 6 3.75 9.54a1.89 1.89 0 0 1-.76 1.61 63 63 0 0 1-6.8 4.86c-2.91 1.63-6.32 2.37-9.21 4.07a43 43 0 0 1-5.94 2.92c-2.8 1.12-5.34 2.81-8.59 3.06a2 2 0 0 1-1.91-1.14c-2.57-5.48-5.16-11.08-7.84-16.64-1.27-2.64-2.38-5.47-4.19-7.73s-2.82-4.84-4.14-7.31c-3.04-5.73-6.09-11.47-9.17-17.15zm307.28 21a16.78 16.78 0 0 1-3.73-2.55 1.57 1.57 0 0 1-.53-1.72c.95-2.86 1.78-5.33 2.56-7.82 1.07-3.38 3-6.39 4.05-9.81 1.84-6 4.07-12 5.93-18s3.72-12.08 6-18a1.29 1.29 0 0 0 .08-.39 2.67 2.67 0 0 1 .62-1.48l.72-.9a2.06 2.06 0 0 1 3-.2 4.18 4.18 0 0 0 1.12.81c1 .44 2.24.16 3.3.47a118.62 118.62 0 0 1 11.47 3.66c4.54 1.88 8.93 4.12 13.62 6.36a1.78 1.78 0 0 1 .94 2.11l-2 6.61c-.53.66-1 1.29-1.57 1.92a2.29 2.29 0 0 1-2.5.73l-16.06-5.4a1.49 1.49 0 0 0-1.78.72l-2.65 5.19a1.12 1.12 0 0 0 .55 1.53l16 6.91a1.75 1.75 0 0 1 1.13 1.5c.16 3.32-.19 6.46-2.94 9.18a2.33 2.33 0 0 1-2.32.53l-15.49-5c-2.26.52-2 2.37-2.52 3.79s-1.36 2.71-1.83 4.25a12.37 12.37 0 0 0-.83 4 1.6 1.6 0 0 0 .88 1.4c5.58 2.75 11.81 4.25 17.73 6.69a1.55 1.55 0 0 1 .9 1.83 55.21 55.21 0 0 1-4 9.56 1.87 1.87 0 0 1-2 .92c-.54-.12-1.09-.24-1.62-.4-.88-.26-1.74-1-2.59-.92-2.81.14-5.17-1.17-7.66-2.08-5.35-2-10.71-3.89-15.98-6.06zm-362 14.2a25.92 25.92 0 0 1-2.56-4.2 1.58 1.58 0 0 1 .4-2 176.22 176.22 0 0 1 26.6-17.61 7.38 7.38 0 0 1 2.77-.5 1.29 1.29 0 0 1 1.32.82c1.2 3 4.4 4.44 4.76 8a1.36 1.36 0 0 1-.2.86c-1.68 2.73-5.22 3.56-7.66 5.71a92 92 0 0 1-7.85 5.77 1 1 0 0 0-.28 1.26l3.08 5.45a.81.81 0 0 0 1.11.3L166 98.32a1.86 1.86 0 0 1 1.49-.19c1.69.49 2.24 1 5.73 4.63a3 3 0 0 1 .82 2c0 .77-.06 2.62-.15 3.16l-14.08 9.77a1.32 1.32 0 0 0-.32 1.83l6.71 9.48a1.56 1.56 0 0 0 2.12.39l16.5-11a1 1 0 0 1 1.44.31l5.57 9a1.58 1.58 0 0 1 0 1.73 3.44 3.44 0 0 1-.71.82c-4.54 3.48-8.89 7.19-13.89 10-2.81 1.59-5.51 3.37-8.15 5.23-2.18 1.54-4.24 2.56-7.11 2.25a2 2 0 0 1-1.43-.8c-2.44-3.34-5.54-6.74-7.32-10.73-2-4.49-5.56-7.62-8-11.64-1.73-2.83-4-5.33-5.93-8-3.29-4.35-6.03-9.16-9.58-13.42zm214.13-77.82a13.72 13.72 0 0 1 1.66-6.38c2.54-4.79 3.67-5.61 8.3-8.44A10.46 10.46 0 0 1 360.2 9c3 .15 6-.22 9.1.9 4.88 1.78 7.72 4.81 11.08 8.49a3.66 3.66 0 0 1-.22 2.93 14.71 14.71 0 0 1-1.72 1.72 7.14 7.14 0 0 1-3.66 2 5.33 5.33 0 0 1-1.89.06 8.35 8.35 0 0 1-4.52-2.25l-.05-.05a9.79 9.79 0 0 0-3.55-2.14 4.68 4.68 0 0 0-3.85.39l-.19.11a3.1 3.1 0 0 0-1.54 2.68 6.38 6.38 0 0 0 1.93 4.58 31.17 31.17 0 0 0 4.76 4.14 54.42 54.42 0 0 1 10.57 8.32c3.93 4.21 6.37 9.28 8.31 14.54.37 1 .09 3.25-.23 5.15a9.3 9.3 0 0 1-2.66 5.16c-1 1-2.05 2-3.11 3C375.14 72 371 74.17 366 74c-2.2-.1-4.34 0-6.66-.73a16.12 16.12 0 0 1-6.34-3.91c-2.32-2.27-4.46-4.73-6.6-7.14a3.07 3.07 0 0 1-.06-4c1.61-1.85 3.74-3.06 5.61-4.63a3.12 3.12 0 0 1 4.09.11l7.18 6.57a2.84 2.84 0 0 0 1.94.75h2.06a3 3 0 0 0 2.59-1.39c.55-1 .44-2.07-.33-3.62-1.28-2.56-2.56-5.31-5-6.88-4.27-2.8-7.91-6.38-12.07-9.32-3.85-2.7-6.32-6.79-8.05-11.09a8.9 8.9 0 0 1-.5-3.34zM84 137c-.47-4.59 2.52-7.71 4.7-11 1.85-2.78 5.15-4.29 8.36-4.87 2.8-.5 5.56-1.68 8.56-1.17 2.1.36 4.08 1 6.31 1.48a1.36 1.36 0 0 1 1 1.52c-.41 2.92-.78 5.55-1.18 8.36a1.6 1.6 0 0 1-.4.85 6.69 6.69 0 0 1-.86.78 1.3 1.3 0 0 1-1 0c-2.07-.55-4.12-1.14-6-1.65a9.11 9.11 0 0 0-4.65 2.16 4.53 4.53 0 0 0-1.21 5 3 3 0 0 0 2.39 2l4.69.71c1.76.26 13.06.8 13.62.79 4.88-.08 9 2.15 13.35 4a15 15 0 0 1 8.94 10.3c.17.61-1 7.67-1.74 10.54-.22.88-7.1 10.27-12.59 11.58a23.33 23.33 0 0 1-9.64.43c-2.91-.55-6.23-.64-9-2.95a1.56 1.56 0 0 1-.49-1.68c.93-2.88.94-6.39 2.69-9.54a1.25 1.25 0 0 1 1.52-.56c3.59 1.39 7.16.89 10.65.91a5.38 5.38 0 0 0 4-1.56 2.73 2.73 0 0 0 .82-2.55c-.78-1.93-2.57-2.74-4.29-3.55a17.55 17.55 0 0 0-5-1.48c-2.27-.32-4.5-.64-6.73-.78-3.32-.2-6.7.3-10-.12a29.65 29.65 0 0 1-13.76-5.27c-.58-.42-.82-1.3-1.21-2a14 14 0 0 1-1.9-7.26A31.54 31.54 0 0 0 84 137zm587 3v-1.12a3.11 3.11 0 0 0-1.18-2.43l-4.24-3.45a2.29 2.29 0 0 1-.41-3.16l4.53-6a3.8 3.8 0 0 1 5.11-.93c1 .69 1.87 1.63 2.76 2.31 4.88 3.73 9.22 8.18 14.16 11.82a80.92 80.92 0 0 1 7 6.23 2.45 2.45 0 0 1 .31 3.24l-3.87 5.29A5.21 5.21 0 0 1 691 154l-5.21-4a2.63 2.63 0 0 0-3.6.4c-3.41 4.07-6.64 7.91-9.79 11.81-1.58 2-2.85 4.16-4.37 6.17s-3.63 3.79-4.73 6c-1.62 3.27-5 4.94-6.56 8.26a5.41 5.41 0 0 1-2.12 2.07 4 4 0 0 1-4.71-.25l-6.53-5.23a2.78 2.78 0 0 1-.52-3.83 24.9 24.9 0 0 0 2.55-3.15c.73-1.41 2.28-2.38 3.44-3.58a152.1 152.1 0 0 0 12.41-15.32c2.76-3.72 5.84-7.21 8.8-10.74A4.22 4.22 0 0 0 671 140zM466.68 81.4c-9.1-1.79-18.1-3.5-26.86-5.75a1.72 1.72 0 0 1-1.26-2C442.12 55 447.16 37 450 18.27a2.18 2.18 0 0 1 .59-1.17l1.25-1.25a1.91 1.91 0 0 1 1.69-.52l9 1.64a1.86 1.86 0 0 1 1.47 1.61 21.37 21.37 0 0 1 .1 3.11c-.19 2.23-.11 4.39-.92 6.63-.67 1.84-4.4 23.33-5.44 25.19s-1.49 7.08-1.64 9.83a1.63 1.63 0 0 0 1.21 1.66c3.69.86 7.23 1.66 10.73 2.57a6.36 6.36 0 0 1 1.62.77 1.75 1.75 0 0 1 .78 1.76c-.6 3.71-1.16 7.19-1.73 10.67a2.24 2.24 0 0 1-2.03.63zM607 142.47c2.62-3.58 5.62-6.85 8.06-10.6 2.56-4 5.59-7.61 8.23-11.55 5-7.46 10.48-14.62 15.78-21.89a1.69 1.69 0 0 1 2.6-.13c2.92 3 6.77 4.82 10.24 6.91a6.41 6.41 0 0 1-2.36 5.71c-3.68 3.38-5.78 7.9-8.56 11.92-2.4 3.47-4.55 7.1-6.94 10.57-3 4.29-5.81 8.67-9.15 12.64-2.7 3.2-4.36 7.54-8.88 9a44.69 44.69 0 0 1-9.32-5.32 4 4 0 0 1-.86-5.64zM407.2 317a1.77 1.77 0 0 1 1.77 1.93c-.59 6.21-2.16 11.72-6 16.8a20.1 20.1 0 0 1-10.83 7.63c-.28.09-9.14 1.28-13.36-.23a18.84 18.84 0 0 1-5.15-3.19c-2.67-2.06-7.56-9.25-7.94-10.14a23.11 23.11 0 0 1-1.71-7.19c0-.15 0-.3-.06-.45a28.78 28.78 0 0 1 0-10.51 29.45 29.45 0 0 1 4.91-11.31 19.67 19.67 0 0 1 4.94-4.69 27.32 27.32 0 0 1 10.83-4.31l1.3-.23a1.76 1.76 0 0 1 2.06 1.73v5.94c0 8.09 4.89 14.61 12.7 17.56a9.89 9.89 0 0 0 3.22.63c1.12.03 2.17.03 3.32.03zm356.31-80.79c-15.62 9.22-30.63 19.4-45.6 29.66a3.71 3.71 0 0 1-4.86-.59c-5.1-5.74-12.21-13.86-15.79-18.13a2.3 2.3 0 0 1 1.09-3.7 46.4 46.4 0 0 0 22.13-14.41A45.07 45.07 0 0 0 732 203.21a1.9 1.9 0 0 0-2.78-1.86h-.06c-3.22 1.72-8.4 4.71-11.47 6.68q-8.4 5.43-16.69 10.97c-5.42 3.62-10.79 7.31-16.2 11a3.74 3.74 0 0 1-4.74-.43c-6.75-6.7-13.4-13.76-20.89-20-3.65-3-6.85-6.54-10.45-9.65-5.54-4.79-10.88-9.8-16.6-14.38-2.66-2.13-5.14-4.49-7.74-6.69a51.12 51.12 0 0 0-6-4.85c-3.65-2.26-6.89-5.06-10.35-7.55s-6.45-5.25-9.93-7.46c-13.84-8.78-27-18.68-41.59-26.27-6-3.12-11.93-6.6-17.9-9.85-3.46-1.88-7-3.52-10.67-5.06-3.91-1.64-7.7-3.56-11.59-5.23q-14.69-6.3-29.77-11.41a162.14 162.14 0 0 0-18.33-5.28c-4.59-1-8.95-3-13.76-3-3.46-2.15-7.53-2-11.3-2.86s-7.79-1.17-11.66-2c-1.9-.44-4.42.64-5.87-.25-2-1.24-3.83-.68-5.7-.76s-3.75-.84-5.59-1c-5.35-.37-10.78.39-16.07-1.1-8.69.55-17.38-.73-26.12.84-5.22.93-10.73-.13-16.06 1.11-2.31.53-4.9-.63-7.08 1-5.18-.28-10.14 1-15.17 2-2.67.49-5.63.15-8 1.2-1.92.85-3.79.4-5.57 1-4.7 1.69-9.63 2.49-14.43 3.8-4.34 1.18-8.71 2.27-13 3.65-9.69 3.13-19.32 6.36-28.79 10.17q-12.66 5.08-25 10.73A290.15 290.15 0 0 0 209.93 136c-5.86 3.52-12.11 6.47-17.66 10.42-7.84 5.58-16 10.69-23.81 16.33-7.39 5.35-14.63 10.89-22 16.3-5.79 4.28-11.33 8.88-16.69 13.69-4.8 4.31-9.79 8.39-14.6 12.67-.92.82-1.83 1.67-2.74 2.5-5.74 5.2-11.08 10.77-16.47 16.12a3.74 3.74 0 0 1-4.73.43c-5.4-3.69-10.78-7.38-16.21-11s-11.02-7.41-16.62-11c-3.08-2-8.25-5-11.47-6.69h-.07a1.89 1.89 0 0 0-2.77 1.85 45 45 0 0 0 11.5 25.85 46.31 46.31 0 0 0 22.13 14.4 2.3 2.3 0 0 1 1.09 3.7c-3.58 4.27-10.69 12.39-15.79 18.13a3.72 3.72 0 0 1-4.87.59c-15.6-10.72-31.23-21.29-47.56-30.84a3.06 3.06 0 0 0-1.48 3.76c1.08 3.57 1.55 7.3 3 10.78a55.59 55.59 0 0 0 5 9.43c6.09 9.46 14.76 15.46 25.3 19 1.42.47 2.86.86 4.37 1.27a2.35 2.35 0 0 1 1.2 3.77C43.41 282.79 39 288 34.74 293.3a6.82 6.82 0 0 0-1.74 4.78c.2 3.49.26 27.87 0 32.9a11.74 11.74 0 0 0 2.51 7.47c3.56 5.12 6.71 9.83 10.55 14.75 3.23 4.14 6.29 8.42 9.59 12.51 1.72 2.13 3.67 4.06 5.36 6.26 3 3.88 6.72 7.17 9.76 11 4.62 5.85 10.5 10.52 15.14 16.25a171.61 171.61 0 0 0 17.54 18.11c3.08 2.82 6 5.74 9 8.64l2.21 2.2a14.75 14.75 0 0 0 2.5 2.44c5.2 3.15 8.69 8.25 13.6 11.77 3.29 2.36 5.92 5.66 9.25 8 2.32 1.6 4 3.82 6.26 5.36 5.79 4 10.93 8.78 16.68 12.79 4.42 3.08 8.61 6.49 13.09 9.47 10.55 7 20.81 14.48 31.95 20.6 6 3.29 11.62 7.29 17.72 10.36 11.56 5.81 23.07 11.8 35.19 16.42 4.17 1.6 8.31 3.29 12.51 4.81s8.73 3.07 13.07 4.64a169.75 169.75 0 0 0 20.52 6.02c5.34 1.22 10.8 2.28 16.17 3.4 6.45 1.34 13 2.14 19.41 3.68 1.89.45 4.39-.62 5.87.26 2 1.19 3.84.71 5.7.73s3.73.87 5.59 1c3.48.25 7-.06 10.49.11s6.72.86 10.09.91a82.49 82.49 0 0 0 15.11-.8c5.75-1 11.71.44 17.58-1 3.06-.77 6.41.19 9.59-1 2.06-.8 4.43.46 6.71-.74 2.07-1.08 4.84.36 6.93-1.34 4.71.37 9-2.09 13.67-2 1.7-1.73 4-.67 6-1.29 3.26-1 6.6-1.79 9.88-2.72 5.52-1.56 11-3.12 16.53-4.75 6.07-1.8 12-4 17.95-6.14 9.41-3.47 18.68-7.23 27.72-11.54a18 18 0 0 1 2.87-1.52c6.35-1.68 12-5.16 17.57-8.24 6.86-3.86 13.84-7.65 20.57-11.86 3.56-2.23 7.42-4.07 10.78-6.48 7.82-5.62 16-10.68 23.83-16.32 7.5-5.4 14.84-11 22.26-16.52q8.08-6 15.57-12.73c5-4.44 10.06-8.68 15.05-13.07 5.56-4.88 10.69-10.24 16.15-15.25a170.73 170.73 0 0 0 17.54-18.12c4.65-5.73 10.52-10.4 15.15-16.25 3-3.84 6.77-7.13 9.76-11 1.69-2.2 3.63-4.13 5.35-6.27 3.3-4.08 6.36-8.36 9.59-12.51 3.85-4.92 7-9.63 10.55-14.75a11.74 11.74 0 0 0 2.52-7.46c-.29-5-.24-22.09 0-25.58a6.88 6.88 0 0 0-1.74-4.79c-4.27-5.3-8.67-10.51-13.18-15.89a2.34 2.34 0 0 1 1.19-3.76c1.52-.41 3-.81 4.39-1.28 10.53-3.49 19.2-9.48 25.3-18.94a56.75 56.75 0 0 0 5-9.44c1.4-3.48 1.86-7.2 2.94-10.77a2.33 2.33 0 0 0-3.49-2.6zM231.61 163c3.17-3 7.1-5.13 10.8-7.42a89.06 89.06 0 0 1 10.41-5.6 217.74 217.74 0 0 1 20.54-8c2.2-.73 4.34-1.62 6.53-2.35a32.53 32.53 0 0 1 3.27-.72c-4 3.08-7.57 5.93-11.24 8.64-4.65 3.43-8.52 7.7-12.67 11.66a127.09 127.09 0 0 0-16.61 19.63 2.83 2.83 0 0 1-.32.37c-5.35 5-9.43 11-13.91 16.69s-8.27 11.62-12.12 17.56A154 154 0 0 0 204 235.85c-2.87 6.64-6 13.17-8.15 20.14-.88 2.91-2.32 5.69-3.12 8.7-1.52 5.69-3.78 11.16-4.81 17-.45 2.59-1.51 5.08-1.9 7.68s-.89 5.06-1.31 7.54c-.36 2.2.06 4.78-.95 6.51-1.26 2.18-.08 4.32-.88 6.17-1.23 2.84-.27 5.88-1 8.58-1.31 4.55-.09 9.2-1 13.59-1.06 5-.62 10-1.56 15.13-1.43-4.9-3.05-9.76-4.24-14.72a84.16 84.16 0 0 1-2.21-11.64c-.19-2-.78-4-.9-6.1s-.75-4.05-.91-6.09 0-4.33 0-6.5v-13a27.07 27.07 0 0 0 0-3.49c-.34-2.64.59-5.07 1-7.6s-.27-5 .88-7.64c.83-1.9.7-4.37 1-6.54.46-3.81 1.65-7.42 2.43-11.09a109.79 109.79 0 0 1 4.36-13.65 233 233 0 0 1 9.87-22.92 163.91 163.91 0 0 1 12.89-21.63c7.89-11.61 17.79-21.68 28.12-31.28zm-22.49 302.53q-8.66-5.1-17.12-10.53c-4.88-3.17-9.63-6.54-14.4-9.88-4.27-3-8.52-6-12.71-9.11-3.59-2.65-7-5.54-10.62-8.17-4.78-3.49-9-7.65-13.9-11a68 68 0 0 1-7.38-6.32c-5.67-5.26-11-10.88-17-15.82q-1.8-1.5-3.55-3.05c-2.39-2.25-4.77-4.84-7.11-7.14-9.21-9.09-18.49-18.11-27-27.89-3.13-3.6-19.59-23.07-27-32-2.07-2.62-2.1-13.62-.03-16.21 2.63-3.31 5.15-6.47 7.81-9.51 4.7-5.38 9.58-10.61 14.15-16.12 3.23-3.89 6.91-7.41 10.31-11.18 6.56-7.3 13.69-14.1 20.76-20.92 2.76-2.67 5.44-5.41 8.14-8.13 1.65-1.48 3.31-2.94 5-4.36 4.84-4 9.46-8.31 14.28-12.37 5.28-4.45 10.47-9.06 16.11-13 7-4.89 13.73-10.13 20.65-15.1 7.7-5.51 15.75-10.48 23.43-16 3.63-2.61 7.78-4.51 11.66-6.78 1.16-.69 3.43-2 5.12-2.86a.58.58 0 0 1 .74.85c-3.94 5.38-8 10.65-11.85 16.09-2.77 3.94-5 8.23-7.63 12.3-4.33 6.81-7.65 14.13-11.15 21.37a203.58 203.58 0 0 0-9.83 24.83c-1.75 5.28-2.77 10.79-4.92 15.94.48 4.56-2.58 8.57-2 13.15-1.86 2.43-.62 5.49-1.8 8.24-1 2.32.12 5.43-1.2 8 .24 7.71-1.68 15.32-1 23.07.23 2.81-.06 5.66.06 8.49.27 6.36.06 12.82 1.16 19 .91 5.08.64 10.43 2.82 15.27-.39 5.52 1.94 10.52 3.09 15.73a177.09 177.09 0 0 0 7.2 23.48c1.56 4.18 3.4 8.25 4.85 12.49s4.06 8.3 6.2 12.41a238.18 238.18 0 0 0 15.57 25.52 116.57 116.57 0 0 0 10.17 13.29 36.48 36.48 0 0 1 3.25 4.4.58.58 0 0 1-.62.89 9.37 9.37 0 0 1-2.71-1.36zM211 293c-2 3.65-1.61 7.9-2.86 11.8-1 3.14-.78 6.68-1.15 10-.28 2.54-.69 5.05-1 7.59a69.78 69.78 0 0 1-.79 7.63c-.85 3.81-.22 7.95-.22 11.95v3.88l-.93.57a9.1 9.1 0 0 1-.81-1.7c-1.28-4.95-3-9.76-4.34-14.71-1.2-4.56-1.08-9.37-2.91-13.78-.06-.14 0-.33 0-.5-.6-9.18-1.56-18.36-.91-27.57.19-2.68 1.14-5.31.92-8.09s1.72-5.25 1-8.08c2.1-4.92 1.8-10.42 3.8-15.42 1.89-4.72 2.91-9.78 4.73-14.54A148 148 0 0 1 212.6 226a178.26 178.26 0 0 1 14.82-23.85c2.23-3 4.93-5.62 7.37-8.46 1.47-1.7 2.77-3.55 4.26-5.22 5.4-6 12.38-10 19-14.47 4.27-2.86 8.9-5.13 13.23-7.86 5.93-3.73 12.56-5.93 18.75-9.08 4.38-2.23 9.14-3.67 13.5-6 .56-.3 1.36-.12 2.6-.07h-.12c-3.26 2.69-6.6 4.74-9.78 7-3.88 2.78-7.65 5.73-11.4 8.68a55.59 55.59 0 0 0-6.63 5.68c-5.3 5.74-10.58 11.52-15.53 17.56-3.19 3.88-5.79 8.24-8.66 12.38-1.37 2-3.08 3.72-4.61 5.54a109.33 109.33 0 0 0-8.14 11.55 283.52 283.52 0 0 0-15.43 27.82 175.29 175.29 0 0 0-10.43 27.05c-1.71 6.19-4.18 12.22-4.4 18.75zm29.56-6.36c-1 2.62-.67 5.66-2.56 7.93.27 4.53-2 8.66-2.05 13.16a28.66 28.66 0 0 1-.94 4.58c-.27 1.38.61 3-.91 4.14-.17.13-.08.62-.1.94-.33 5-.58 10.06-1 15.07-.28 3.16-.86 6.29-1.43 10.35-1.69-4.95-3.23-9.06-4.51-13.26-1.22-4-1.47-8.29-3-12.24-.06-.14 0-.33 0-.5-.75-5.42-1.76-25.31-.86-30 .5-2.55.59-5.07.93-7.6a56.68 56.68 0 0 1 1.06-7.05c2.2-8 3.92-16.23 7.15-24 2.32-5.56 5.07-10.9 7.78-16.25a104.6 104.6 0 0 1 11.7-18.15c2.29-2.86 4.29-6 6.78-8.65a54.63 54.63 0 0 1 7.68-6.72c4.43-3.26 9-6.29 13.61-9.34 6.21-4.13 12.93-7.34 19.49-10.83s13.59-5.82 20.2-9.14a6.4 6.4 0 0 1 2.61-.06h-.13a52.86 52.86 0 0 1-6.63 5c-4.21 2.88-8.49 5.65-12.17 9.25-1.84 1.79-4.15 3.13-5.88 5-7.5 8.11-14.66 16.46-20.39 26-3.39 5.65-7.53 10.83-11.17 16.35A207 207 0 0 0 252 254.91a183.86 183.86 0 0 0-9 23.25c-.84 2.84-1.41 5.84-2.44 8.47zm26.68 5.82a44.61 44.61 0 0 0-1.85 7.72c-.45 2.48-.91 5-1.55 7.38-1.28 4.72-.88 9.74-2.82 14.3-.18.42 0 1 0 1.48-.41 4.82-.85 9.64-1.35 15.33a40.4 40.4 0 0 1-2.6-4.83c-1.33-3.62-2.3-7.38-3.75-10.94-.73-1.8.76-4.05-1.29-5.46-.33-3.19-.88-6.38-.95-9.57q-.23-10 0-20c.08-3.46 1.27-6.84 1.67-10.24.79-6.6 3.15-12.67 5.3-18.82s4.67-12.45 8.56-17.94c.78-1.12 1.09-2.56 1.81-3.74a56.88 56.88 0 0 1 12-14c5.47-4.57 11.22-8.81 16.93-13.1a46.81 46.81 0 0 1 5.82-3.74c4.95-2.69 9.84-5.51 14.95-7.88 5.44-2.52 11-4.69 16.4-7.41a3.15 3.15 0 0 1 1.6-.13c-4 3.24-7.6 6-11.34 8.56s-6.37 6.94-10.73 9c-1.93 3.51-5.32 5.75-7.71 8.81-3.16 4.07-5.89 8.47-8.84 12.7a81.69 81.69 0 0 0-5.54 9.32c-2.34 4.55-5.28 8.82-7.75 13.28-2.58 4.68-4.87 9.62-7.31 14.41-4.16 8.19-6.44 17.05-9.66 25.5zM308 264.4c-2.58 4.44-3.61 9.53-6 14s-4 9.41-6.16 13.94c-3 6.21-4.09 12.95-6.66 19.25-1.45 3.57-1.37 7.75-2.17 11.61-.86 4.2-2.16 8.3-2 12.68 0 1-.82 2-1.43 3.32-2.81-6.58-5.68-12.75-6.69-19.76-.46-3.22-.63-6.4-.82-9.61-.07-1.09.28-2.19-.73-3.24a3.22 3.22 0 0 1-.2-2.82c1.3-3.31.47-6.79 1-10.1a97.66 97.66 0 0 1 4.3-17.67c1.78-4.81 3.23-9.72 6.54-13.8 1.81-2.22 3.27-4.74 5.2-6.82 3.64-3.9 7.38-7.72 11.31-11.31a103.78 103.78 0 0 1 16.45-12.14c4.52-2.74 9.25-5 14-7.34 3.17-1.57 6.37-3.12 9.61-4.55a3.69 3.69 0 0 1 1.74-.11c-2.8 2.78-5.64 4.55-8.24 6.61a68.58 68.58 0 0 0-9.1 8.15c-5.95 6.8-11.68 13.81-15.92 21.88-1.39 2.6-2.58 5.3-4.03 7.83zm98.62 116.51c-4-.05-7.63 1.85-11.61 2.29a59.22 59.22 0 0 1-9.1.76 88.14 88.14 0 0 1-12.06-1 64.43 64.43 0 0 1-10.62-3.26 62.3 62.3 0 0 1-21.83-13.71 68.24 68.24 0 0 1-12.26-15.44 79.23 79.23 0 0 1-6.72-16.68 33.79 33.79 0 0 1-1.34-8.11 129.64 129.64 0 0 1 0-13.8 57 57 0 0 1 3.92-16.91 76.33 76.33 0 0 1 7.93-14.73 34.21 34.21 0 0 1 3.75-4.4c2.37-2.57 4.83-5.07 7.42-7.42a61.55 61.55 0 0 1 9.61-6.86c5.51-3.36 11.61-5 17.49-7.29a3.77 3.77 0 0 1 .8-.35c4.68-.44 9.37-.87 14.15-1.3 4.61.44 9.28.7 13.88 1.41a32.91 32.91 0 0 1 7.67 2.16c5.73 2.38 11.54 4.74 16.34 8.77 4.28 3.59 9.45 6.29 12.14 11.59.72 1.4 2.82 1.85 2.82 3.83 6 6.16 8 14.31 10.76 22a19.23 19.23 0 0 1 1.34 8c-.17 2 .66 4 .88 6.07a17.79 17.79 0 0 1-.91 7.1c-.69 2.26.85 4.92-1.07 7.06-.31 6.72-3.15 12.64-6.08 18.46a41.34 41.34 0 0 1-6.52 9.75c-4.49 4.78-8.87 9.73-14.32 13.53-5.08 3.57-11.02 5.62-16.49 8.48zM421.09 421c-.19.11-.58-.16-1.24-.37 2.3-1.58 4.34-3.15 6.54-4.44a36.86 36.86 0 0 0 8.32-6.37c1.2-1.27 2.4-2.56 3.7-3.73 8.95-8.08 15.13-18.13 20.56-28.69 3.1-6 5.62-12.33 8.5-18.46 4.13-8.77 7.22-18 10.24-27.21 1.16-3.55 1.23-7.46 2.37-11 1.3-4 1.05-8.37 2.82-12.32.62-1.38.1-3.27.1-4.48l1.5-2.91a76.12 76.12 0 0 1 6.24 16.35 43.72 43.72 0 0 1 1.21 9.48c.19 5.32-.11 10.66.1 16 .18 4.56-1.21 8.84-2.19 13.12a74.36 74.36 0 0 1-5.76 16.57 49.62 49.62 0 0 1-5.28 8.33A113.63 113.63 0 0 1 467.43 393a111.12 111.12 0 0 1-24.2 17.46c-4.21 2.31-8.65 4.1-12.87 6.38-2.93 1.61-6.27 2.54-9.27 4.16zm9.9 27.55c.38-.39.69-.91 1.15-1.13 11.08-5.26 19.52-13.85 27.47-22.75 7-7.81 12.54-16.9 17.53-26.22 1.87-3.49 3.86-6.91 5.94-10.27A123.54 123.54 0 0 0 494 366c2.13-5.79 4.48-11.51 6-17.51 1.44-5.75 3.23-11.4 4.15-17.31.29-1.84.16-4.11 1-5.5 1.23-2 .62-3.81.79-5.69.19-2.06 1.62-3.84 1.08-6.08-.47-1.93.58-3.73.88-5.59a43 43 0 0 0 .08-6.67c2.91 2.26 2.92 5.3 4 7.83 1.75 4.15 2.46 8.63 3.79 12.91a36.06 36.06 0 0 1 1.17 9c.22 4.8 0 9.61.06 14.42v3.69c-.06 2.24 0 4.3-.86 6.52-.73 1.79-.66 4-1 6.05a101.9 101.9 0 0 1-3.74 15c-1.95 6.2-4.9 12-7.79 17.76-2.68 5.36-5.51 10.64-9.87 14.9-1.48 4.13-6 5.23-8.48 8.37s-6 4.79-8.92 7.21c-10 8.25-21.72 13.34-33.18 18.93a58.2 58.2 0 0 1-12.16 4.28zM442.77 472l.14-.12.14.13zm2.71-.06a5.16 5.16 0 0 1-2.29.08c4.81-3 9.19-6.21 13.72-9.26 8.29-5.57 14.65-13.09 21.65-20a60 60 0 0 0 7.1-9c4.8-7 9.41-14.1 14.19-21.1 3-4.43 5.94-8.94 8.53-13.63 2.05-3.72 4.62-7.3 6.21-11.25 2.14-5.28 4.53-10.45 6.53-15.79 1.47-3.9 3-7.76 4.14-11.78 1.23-4.32 2.75-8.57 3.67-13 1.13-5.38 2.81-10.68 3.07-16.23 1.67-2.35.17-5.33 1.19-7.5 1.16-2.48.21-4.87.86-7.15 1.22-4.33.8-8.72 1-13.09.08-1.67.86-3.3 1.47-5.51 1.24 3.32 2.66 6.25 3.4 9.33 1.17 4.88 3.28 9.57 3.07 14.74 2 2.95.78 6.48 1.8 9.73.94 3 .2 6.6.2 9.93 0 3.5.61 7.13-.14 10.46-1.25 5.56-.55 11.44-2.86 16.78.2 4.69-1.66 9-3.12 13.21s-3 8.41-4.66 12.55a158.9 158.9 0 0 1-16.66 29.63A112.58 112.58 0 0 1 504 439.45a60.31 60.31 0 0 1-7.26 5.34c-4.38 3.08-8.63 6.4-13.23 9.12-5 3-10.4 5.42-15.62 8.09-7.32 3.71-15.1 6.3-22.41 10zm16 18a3 3 0 0 1-1.47.14c5.55-3.86 10.54-7.56 15.64-11.13 8.56-6 15.69-13.48 22.71-21 4.39-4.72 8.72-9.67 11.87-15.46a20.4 20.4 0 0 1 3.54-4.67c4.9-4.85 8.32-10.82 12.13-16.43a181.68 181.68 0 0 0 15.38-27.1 245.24 245.24 0 0 0 9.72-24.5 183.1 183.1 0 0 0 6.11-23c.61-3.22 1.44-6.41 2-9.68.8-5 2.21-10 1.94-15.18 1.77-2.34.73-5.05 1-7.59.35-3.36.79-6.71 1-10.08s0-6.62 0-11.15a29 29 0 0 1 2 3.29c2.08 5.19 3.2 10.67 4.82 16 .82 2.71.81 5.67 1.21 8.52q.45 3.3 1 6.58c.33 2-.67 4.12.87 6.18.72 1 .12 2.91.12 4.41 0 3.33.13 6.67 0 10-.13 2.53-.61 5.06-1 7.58-.33 2.36.26 4.68-.8 7.17-.94 2.18-.56 5-1.05 7.53a189.8 189.8 0 0 1-5.65 21.69c-3 9.63-7.58 18.56-12.41 27.36a183.82 183.82 0 0 1-11.24 17.37c-5.34 7.57-11.85 14-18.54 20.25a74.69 74.69 0 0 1-12.28 8.9 290.06 290.06 0 0 1-27 14.52c-7.16 3.35-14.57 6-21.62 9.54zm77.12-15.14c-4.7 4.71-10.73 7.53-16.76 10.16-3.8 1.66-7.84 2.78-11.66 4.41-5.12 2.19-10.15 4.55-15.66 5.67a6.66 6.66 0 0 0-1.91 1.16l-.69-.83c1.63-1.22 3.27-2.41 4.86-3.67 1.77-1.4 3.5-2.86 5.19-4.34.93-.81 2.36-2.21 3.21-3.1 4.64-4.88 9.39-9.68 13.75-14.81 3.45-4.05 6.85-8.16 10.2-12.28 4.88-6 9.54-12.24 14.08-18.56 5.88-8.18 10.78-16.84 15.84-25.47 5.18-8.83 8.33-18.57 13-27.64 1.68-8.38 5.55-16.09 7.16-24.55 1.14-6 2.9-11.82 4-17.84.41-2.22 0-4.8 1-6.51 1.34-2.34.41-4.5.8-6.69.37-2 1.33-3.88 1.1-6.09-.2-1.85-.62-3.86.86-5.63.41-.49.13-1.62 0-2.44-.7-7.56 1.67-14.94 1.7-22.63 1.44 4.88 3.1 9.7 4.25 14.65 1.51 6.48 3.19 13 3.06 19.73 1.88 4.75.77 9.72 1 14.58s.14 9.67 0 14.49a53.07 53.07 0 0 1-.94 6.09c-.3 2 .08 4-.82 6.16s-.5 4.64-1.08 7c-1.24 5.15-2.43 10.31-3.67 15.46a117.73 117.73 0 0 1-5.66 16.72 159.31 159.31 0 0 1-11.37 23.31c-3.09 5.06-6.39 10-9.55 15-2.73 4.31-6.63 7.87-9.64 12-4.49 6.24-10.31 11.13-15.65 16.49zm186.09-152c-7.41 9-23.87 28.41-27 32-8.51 9.78-17.78 18.81-27 27.89-5.78 5.7-11.72 11.25-17.87 16.56-4.21 3.63-8.34 7.34-12.59 10.92-5.28 4.45-10.47 9.06-16.11 13-7 4.89-13.71 10.15-20.65 15.1s-13.76 9.55-20.72 14.15c-4.83 3.2-15.73 10.5-20 12.22a.58.58 0 0 1-.68-.88c5.51-7.49 11.29-14.79 16.21-22.67A158.87 158.87 0 0 0 587 426.3a31.83 31.83 0 0 1 3-5.71c1.68-2.2 1.88-4.91 3.08-7.24.81-1.59 2-3 2.57-4.71a29.36 29.36 0 0 1 2-4.84c2.2-4.1 3.11-8.76 4.72-13.07a113.1 113.1 0 0 0 4.58-15.61 87.2 87.2 0 0 1 2.64-10.38c.41-1.19.13-2.6.34-3.87s.79-2.38.94-3.59c.76-6.21 1.33-12.48 2.27-18.63s.48-12.42.71-18.61.56-12.71-.1-19c-.62-5.89-.78-11.88-2-17.65s-1.33-11.54-3.83-16.88c.49-4.11-1.79-7.61-2.56-11.45a87.59 87.59 0 0 0-3.49-11 156.79 156.79 0 0 0-7-18.1c-2-4-3.68-8.15-5.72-12.12A250.73 250.73 0 0 0 576 191.36c-3.91-6-8.34-11.51-12.45-17.31-.76-1.07-2-1.83-2.77-2.87a3.34 3.34 0 0 1-.5-1.24.58.58 0 0 1 .68-.72c1.7.42 2.86 1.92 4.41 2.61a30.14 30.14 0 0 1 4.56 2.66c4.87 3.3 10.09 6.07 14.93 9.43 5.31 3.69 10.52 7.53 15.88 11.14 4.31 2.9 8.23 6.35 12.73 9a31.94 31.94 0 0 1 6 4.89c4.4 4.33 9.55 7.74 14.15 11.86 5.56 5 11.11 10.05 16.83 14.84 7.63 6.4 14.24 13.77 21.37 20.64s14.2 13.63 20.76 20.92c3.39 3.78 7.07 7.3 10.31 11.19 4.57 5.51 9.45 10.73 14.15 16.12 2.65 3 5.17 6.2 7.81 9.5a7 7 0 0 1-.16 8.82z"/>
	</svg>